HIERARCHY
ROOT Hips
{
	OFFSET 0.000000 100.481300 0.000000
	CHANNELS 6 Xposition Yposition Zposition Xrotation Yrotation Zrotation
	JOINT Spine
	{
		OFFSET -0.279200 12.230698 -2.892100
		CHANNELS 3 Xrotation Yrotation Zrotation
		JOINT Spine1
		{
			OFFSET -0.325700 14.269203 -3.374200
			CHANNELS 3 Xrotation Yrotation Zrotation
			JOINT Spine2
			{
				OFFSET -0.372300 16.307602 -0.352600
				CHANNELS 3 Xrotation Yrotation Zrotation
				JOINT Neck
				{
					OFFSET -0.418800 17.814194 8.416900
					CHANNELS 3 Xrotation Yrotation Zrotation
					JOINT Head
					{
						OFFSET 0.000000 7.031097 3.806800
						CHANNELS 3 Xrotation Yrotation Zrotation
						JOINT HeadTop_End
						{
							OFFSET 0.000000 24.646606 12.978600
							CHANNELS 3 Xrotation Yrotation Zrotation
							End Site
							{
								OFFSET 0.000000 27.854965 0.000000
							}
						}
					}
				}
				JOINT LeftShoulder
				{
					OFFSET 16.952999 14.495407 -7.737500
					CHANNELS 3 Xrotation Yrotation Zrotation
					JOINT LeftArm
					{
						OFFSET 9.308998 -2.777710 0.208600
						CHANNELS 3 Xrotation Yrotation Zrotation
						JOINT LeftForeArm
						{
							OFFSET 29.972298 0.000000 0.000000
							CHANNELS 3 Xrotation Yrotation Zrotation
							JOINT LeftHand
							{
								OFFSET 26.026505 0.000000 0.000000
								CHANNELS 3 Xrotation Yrotation Zrotation
								JOINT LeftHandThumb1
								{
									OFFSET 12.240501 -7.147949 9.207150
									CHANNELS 3 Xrotation Yrotation Zrotation
									JOINT LeftHandThumb2
									{
										OFFSET 4.138618 -2.389435 2.389433
										CHANNELS 3 Xrotation Yrotation Zrotation
										JOINT LeftHandThumb3
										{
											OFFSET 2.726913 -1.574387 1.574386
											CHANNELS 3 Xrotation Yrotation Zrotation
											JOINT LeftHandThumb4
											{
												OFFSET 3.941010 -2.275345 2.275342
												CHANNELS 3 Xrotation Yrotation Zrotation
												End Site
												{
													OFFSET -0.005798 5.087799 0.009903
												}
											}
										}
									}
								}
								JOINT LeftHandIndex1
								{
									OFFSET 24.424698 -1.985611 5.953459
									CHANNELS 3 Xrotation Yrotation Zrotation
									JOINT LeftHandIndex2
									{
										OFFSET 6.426697 0.000000 0.000000
										CHANNELS 3 Xrotation Yrotation Zrotation
										JOINT LeftHandIndex3
										{
											OFFSET 5.337898 0.000000 0.000000
											CHANNELS 3 Xrotation Yrotation Zrotation
											JOINT LeftHandIndex4
											{
												OFFSET 4.409401 0.000000 0.000000
												CHANNELS 3 Xrotation Yrotation Zrotation
												End Site
												{
													OFFSET 0.000000 4.409363 0.014373
												}
											}
										}
									}
								}
								JOINT LeftHandMiddle1
								{
									OFFSET 23.810104 0.000000 0.000000
									CHANNELS 3 Xrotation Yrotation Zrotation
									JOINT LeftHandMiddle2
									{
										OFFSET 7.176498 0.000000 0.000000
										CHANNELS 3 Xrotation Yrotation Zrotation
										JOINT LeftHandMiddle3
										{
											OFFSET 6.774902 0.000000 0.000000
											CHANNELS 3 Xrotation Yrotation Zrotation
											JOINT LeftHandMiddle4
											{
												OFFSET 5.403328 0.000000 0.000000
												CHANNELS 3 Xrotation Yrotation Zrotation
												End Site
												{
													OFFSET -0.027702 5.403244 0.017414
												}
											}
										}
									}
								}
								JOINT LeftHandRing1
								{
									OFFSET 22.908401 -0.839279 -6.020567
									CHANNELS 3 Xrotation Yrotation Zrotation
									JOINT LeftHandRing2
									{
										OFFSET 6.337502 0.000000 0.000000
										CHANNELS 3 Xrotation Yrotation Zrotation
										JOINT LeftHandRing3
										{
											OFFSET 5.779297 0.000000 0.000000
											CHANNELS 3 Xrotation Yrotation Zrotation
											JOINT LeftHandRing4
											{
												OFFSET 4.965698 0.000000 0.000000
												CHANNELS 3 Xrotation Yrotation Zrotation
												End Site
												{
													OFFSET 0.000000 4.965668 0.016186
												}
											}
										}
									}
								}
								JOINT LeftHandPinky1
								{
									OFFSET 20.037003 -1.530319 -10.950146
									CHANNELS 3 Xrotation Yrotation Zrotation
									JOINT LeftHandPinky2
									{
										OFFSET 5.254700 0.000000 0.000000
										CHANNELS 3 Xrotation Yrotation Zrotation
										JOINT LeftHandPinky3
										{
											OFFSET 4.810204 0.000000 0.000000
											CHANNELS 3 Xrotation Yrotation Zrotation
											JOINT LeftHandPinky4
											{
												OFFSET 3.647202 0.000000 0.000000
												CHANNELS 3 Xrotation Yrotation Zrotation
												End Site
												{
													OFFSET 0.000000 3.647186 0.011889
												}
											}
										}
									}
								}
							}
						}
					}
				}
				JOINT RightShoulder
				{
					OFFSET -15.141001 14.495407 -7.737500
					CHANNELS 3 Xrotation Yrotation Zrotation
					JOINT RightArm
					{
						OFFSET -9.308998 -2.777710 0.208500
						CHANNELS 3 Xrotation Yrotation Zrotation
						JOINT RightForeArm
						{
							OFFSET -29.972300 0.000000 0.000000
							CHANNELS 3 Xrotation Yrotation Zrotation
							JOINT RightHand
							{
								OFFSET -26.026505 0.000000 0.000000
								CHANNELS 3 Xrotation Yrotation Zrotation
								JOINT RightHandThumb1
								{
									OFFSET -12.240601 -7.148026 9.207092
									CHANNELS 3 Xrotation Yrotation Zrotation
									JOINT RightHandThumb2
									{
										OFFSET -4.138618 -2.389435 2.389433
										CHANNELS 3 Xrotation Yrotation Zrotation
										JOINT RightHandThumb3
										{
											OFFSET -2.726974 -1.574417 1.574421
											CHANNELS 3 Xrotation Yrotation Zrotation
											JOINT RightHandThumb4
											{
												OFFSET -3.941010 -2.275345 2.275343
												CHANNELS 3 Xrotation Yrotation Zrotation
												End Site
												{
													OFFSET 0.005814 5.087799 0.009927
												}
											}
										}
									}
								}
								JOINT RightHandIndex1
								{
									OFFSET -24.424698 -1.985657 5.953444
									CHANNELS 3 Xrotation Yrotation Zrotation
									JOINT RightHandIndex2
									{
										OFFSET -6.426697 0.000000 0.000000
										CHANNELS 3 Xrotation Yrotation Zrotation
										JOINT RightHandIndex3
										{
											OFFSET -5.337898 0.000000 0.000000
											CHANNELS 3 Xrotation Yrotation Zrotation
											JOINT RightHandIndex4
											{
												OFFSET -4.409401 0.000000 0.000000
												CHANNELS 3 Xrotation Yrotation Zrotation
												End Site
												{
													OFFSET 0.000000 4.409363 0.014408
												}
											}
										}
									}
								}
								JOINT RightHandMiddle1
								{
									OFFSET -23.810097 0.000000 0.000000
									CHANNELS 3 Xrotation Yrotation Zrotation
									JOINT RightHandMiddle2
									{
										OFFSET -7.176498 0.000000 0.000000
										CHANNELS 3 Xrotation Yrotation Zrotation
										JOINT RightHandMiddle3
										{
											OFFSET -6.774902 0.000000 0.000000
											CHANNELS 3 Xrotation Yrotation Zrotation
											JOINT RightHandMiddle4
											{
												OFFSET -5.403328 0.000000 0.000000
												CHANNELS 3 Xrotation Yrotation Zrotation
												End Site
												{
													OFFSET 0.027702 5.403244 0.017457
												}
											}
										}
									}
								}
								JOINT RightHandRing1
								{
									OFFSET -22.908302 -0.839325 -6.020576
									CHANNELS 3 Xrotation Yrotation Zrotation
									JOINT RightHandRing2
									{
										OFFSET -6.337502 0.000000 0.000000
										CHANNELS 3 Xrotation Yrotation Zrotation
										JOINT RightHandRing3
										{
											OFFSET -5.779297 0.000000 0.000000
											CHANNELS 3 Xrotation Yrotation Zrotation
											JOINT RightHandRing4
											{
												OFFSET -4.965698 0.000000 0.000000
												CHANNELS 3 Xrotation Yrotation Zrotation
												End Site
												{
													OFFSET 0.000000 4.965668 0.016226
												}
											}
										}
									}
								}
								JOINT RightHandPinky1
								{
									OFFSET -20.037003 -1.530334 -10.950259
									CHANNELS 3 Xrotation Yrotation Zrotation
									JOINT RightHandPinky2
									{
										OFFSET -5.254700 0.000000 0.000000
										CHANNELS 3 Xrotation Yrotation Zrotation
										JOINT RightHandPinky3
										{
											OFFSET -4.810204 0.000000 0.000000
											CHANNELS 3 Xrotation Yrotation Zrotation
											JOINT RightHandPinky4
											{
												OFFSET -3.647202 0.000000 0.000000
												CHANNELS 3 Xrotation Yrotation Zrotation
												End Site
												{
													OFFSET 0.000000 3.647186 0.011917
												}
											}
										}
									}
								}
							}
						}
					}
				}
			}
		}
	}
	JOINT LeftUpLeg
	{
		OFFSET 15.427100 -6.655098 0.678600
		CHANNELS 3 Xrotation Yrotation Zrotation
		JOINT LeftLeg
		{
			OFFSET 4.081073 -39.591068 13.024000
			CHANNELS 3 Xrotation Yrotation Zrotation
			JOINT LeftFoot
			{
				OFFSET -4.081074 -37.707932 -15.979700
				CHANNELS 3 Xrotation Yrotation Zrotation
				JOINT LeftToeBase
				{
					OFFSET 5.346399 -15.068900 20.645000
					CHANNELS 3 Xrotation Yrotation Zrotation
					JOINT LeftToe_End
					{
						OFFSET 2.754700 0.931300 11.300900
						CHANNELS 3 Xrotation Yrotation Zrotation
						End Site
						{
							OFFSET 0.000000 11.669021 0.000000
						}
					}
				}
			}
		}
	}
	JOINT RightUpLeg
	{
		OFFSET -15.569500 -6.655098 0.678600
		CHANNELS 3 Xrotation Yrotation Zrotation
		JOINT RightLeg
		{
			OFFSET -4.081825 -39.591045 13.023800
			CHANNELS 3 Xrotation Yrotation Zrotation
			JOINT RightFoot
			{
				OFFSET 4.081824 -37.707954 -15.979600
				CHANNELS 3 Xrotation Yrotation Zrotation
				JOINT RightToeBase
				{
					OFFSET -5.346400 -15.068900 20.645000
					CHANNELS 3 Xrotation Yrotation Zrotation
					JOINT RightToe_End
					{
						OFFSET -2.754700 0.931300 11.300900
						CHANNELS 3 Xrotation Yrotation Zrotation
						End Site
						{
							OFFSET 0.000000 11.669021 0.000000
						}
					}
				}
			}
		}
	}
}
MOTION
Frames: 4
Frame Time: 0.033333
-35.242817 88.270973 68.887688 -205.908101 155.566178 197.684581 25.561360 9.546515 -6.349623 8.981718 3.287494 -1.227856 8.974910 3.321142 -1.203275 5.894210 2.353243 -3.004127 -6.931822 9.378427 -0.017236 0.000001 -0.000000 -0.000000 -0.645607 4.071356 8.964642 -16.298370 -46.447496 -45.971090 0.000001 -8.538181 0.000011 39.259306 -13.503545 28.555032 6.334034 -3.120576 -7.911336 -27.003237 17.769260 15.420137 6.436270 15.007281 11.938190 0.000000 0.000000 0.000000 0.281831 2.013713 -12.821174 1.447678 4.228638 -37.783237 1.646519 4.472667 -40.403943 -0.000001 0.000000 -0.000001 1.791450 7.463261 -14.987974 1.410032 4.179740 -37.269634 0.681018 2.990602 -25.652213 -0.000002 0.000002 -0.000000 1.861834 6.124310 -20.801380 0.888041 3.387445 -29.371958 0.712361 3.054909 -26.246520 0.000001 0.000001 -0.000001 1.198328 6.053446 -12.509458 0.359117 -1.862977 -18.998246 0.747368 3.124816 -26.895963 -0.000001 0.000000 -0.000001 -0.233917 -1.579639 -8.886888 -28.127889 105.962756 58.502735 0.000021 56.633347 -0.000018 -80.689580 -2.737911 31.296559 2.146032 0.885966 10.075845 7.881177 -18.641094 4.745896 26.144364 -22.141940 8.503576 -0.000001 0.000001 0.000003 1.764377 -4.632967 41.587249 5.787515 -6.851061 80.360420 3.158657 -5.828104 56.883731 0.000003 0.000000 -0.000000 2.775819 -5.838985 39.923060 6.065097 -6.892170 82.680150 3.672129 -6.081498 61.617452 0.000005 0.000001 0.000001 4.428775 -6.650364 56.904420 6.880366 -6.947902 89.438950 3.425087 -5.929447 59.205405 0.000001 0.000000 0.000000 3.796412 -7.123787 39.082479 6.498201 -6.933713 86.277345 0.568545 -2.758422 23.288056 0.000000 0.000000 -0.000001 -58.740084 -3.998955 22.198769 9.544858 8.994673 3.439911 19.999837 -1.416474 -15.297696 -8.141545 0.000002 -0.000010 -0.000000 -0.000002 -0.000003 9.367872 -12.630496 -5.060909 35.477973 8.068012 -1.543471 -21.875030 3.483343 -5.491036 -0.000100 -0.000003 -0.000004 0.000000 0.000000 -0.000000 
-29.469183 90.192833 71.468307 -206.403945 163.982419 199.908176 21.439518 8.933960 -5.072093 7.502952 2.895164 -1.328542 7.502843 2.910544 -1.310410 2.357328 1.882989 -1.104705 -13.769975 6.617972 5.141976 -0.000000 0.000000 0.000000 -0.626366 4.494542 7.718014 -5.674755 -44.635939 -46.304864 0.000002 -10.508841 0.000023 40.633878 -10.797422 18.371595 5.823519 -3.013016 -7.898730 -25.242238 17.635663 12.865226 6.255361 16.708231 12.154867 -0.000000 0.000001 0.000001 0.101224 1.187126 -11.058946 1.762957 4.605530 -41.875193 1.986803 4.842824 -44.592536 -0.000001 -0.000003 0.000001 1.069696 5.029334 -14.223466 1.590365 4.406031 -39.678563 0.833612 3.289066 -28.437467 0.000001 0.000001 -0.000002 1.752405 6.164901 -19.123372 1.129380 3.783583 -33.229461 0.870189 3.355606 -29.068722 -0.000000 0.000000 0.000002 1.164502 6.354617 -11.341839 0.407452 -1.727215 -20.191006 0.810205 3.245530 -28.026809 -0.000002 -0.000001 0.000000 -0.448987 -2.625630 -9.702054 -28.363137 107.921490 57.471240 -0.000060 65.445076 0.000070 -53.350754 -1.046856 18.406305 1.967841 0.751537 9.972440 8.278636 -18.262276 5.269721 25.817919 -22.275492 8.688031 -0.000000 -0.000001 -0.000000 1.782478 -4.656736 40.413546 5.817424 -6.856048 80.611061 3.235972 -5.877542 57.641729 0.000001 0.000001 0.000002 2.828122 -5.788392 42.501853 5.812804 -6.855273 80.572354 3.327460 -5.890807 58.344015 0.000001 -0.000002 -0.000000 4.418983 -6.575847 59.426696 6.889336 -6.947981 89.513153 2.949021 -5.616987 54.462313 0.000001 -0.000002 -0.000000 3.507683 -6.645602 40.703525 6.406107 -6.927152 85.514016 0.107310 -1.219456 10.059541 -0.000001 0.000000 0.000000 -48.070830 -1.867492 22.510963 20.488095 6.671495 5.450359 20.154631 -1.719795 -15.259831 -6.160947 -0.000027 -0.000002 0.000001 0.000003 -0.000001 12.271003 -16.579728 -13.660358 34.171443 9.479495 -5.183963 -24.084343 9.607248 -1.692743 -1.223990 0.000012 0.000001 -0.000000 0.000000 0.000000 
-21.421282 90.696030 74.972969 -201.137337 171.470970 197.906070 13.835788 10.843099 -0.043578 5.051727 3.193869 -0.442344 5.052345 3.199576 -0.425625 0.707686 0.625605 0.607695 -17.494408 1.623846 5.598055 0.000001 -0.000003 0.000000 -0.571254 4.126714 7.733514 6.321828 -46.634875 -47.814767 -0.000001 -16.980499 0.000009 43.298017 -10.316789 11.793941 5.276292 -2.896370 -7.834100 -23.779638 17.456896 10.622659 6.222090 17.247933 12.230528 -0.000001 0.000001 -0.000001 -0.239171 -0.709934 -10.329573 1.888397 4.741273 -43.414602 2.066672 4.922216 -45.530990 0.000001 0.000000 -0.000001 0.551035 3.104245 -13.469157 1.722930 4.560640 -41.374161 0.953684 3.501325 -30.464860 0.000002 0.000001 -0.000001 1.783601 6.687118 -17.341444 1.219179 3.916939 -34.566826 0.925686 3.453379 -30.003109 -0.000000 -0.000000 0.000001 1.400574 7.357149 -11.559194 0.394956 -1.761462 -19.889161 0.732449 3.095249 -26.620715 0.000000 0.000002 -0.000001 -0.628285 -3.945897 -9.013317 -23.973167 104.984242 51.656130 0.000000 63.239868 0.000004 -27.548759 1.083907 17.595575 1.921221 0.240872 9.834681 8.540352 -18.028870 5.610324 25.610146 -22.358214 8.804264 -0.000000 0.000000 0.000003 1.610362 -4.457001 38.515314 5.787666 -6.851089 80.361670 3.281142 -5.905761 58.081825 -0.000001 0.000000 -0.000002 2.975198 -5.841131 45.411141 5.469792 -6.789870 77.685472 2.717931 -5.497616 52.329484 -0.000002 -0.000000 -0.000001 4.644784 -6.643045 62.069651 6.496190 -6.933586 86.260645 2.192680 -5.038894 46.554354 -0.000002 -0.000001 -0.000004 3.459796 -6.478953 42.380767 6.236258 -6.911846 84.104327 0.001865 -0.160976 1.321052 0.000003 -0.000000 -0.000001 -46.725403 -2.901474 21.195778 40.693014 -3.141109 5.407159 20.240996 -3.185760 -22.662235 -1.748136 -0.000002 0.000007 0.000000 0.000001 -0.000000 6.664298 -18.204496 -21.658255 35.971625 10.983002 -5.484398 -24.937282 5.581339 -0.618653 -5.419919 0.000006 0.000005 0.000000 0.000002 0.000000 
-16.177227 91.266975 77.169991 -194.693777 179.326289 197.617563 6.876102 12.072096 4.860093 2.884339 3.629656 0.583362 2.883129 3.630811 0.597146 1.494217 -0.869182 2.291587 -19.046444 -3.434643 2.548017 0.000001 -0.000002 -0.000000 -0.563179 3.807898 8.360139 28.448896 -52.279327 -38.114491 0.000000 -27.876818 -0.000001 30.500725 -9.477927 10.971405 4.695474 -2.773037 -7.720941 -24.383000 17.801647 10.814049 6.224590 17.387010 12.252477 -0.000001 -0.000002 0.000002 -0.507837 -2.017389 -10.978143 1.910600 4.764556 -43.682673 2.050070 4.905932 -45.337126 -0.000001 -0.000000 0.000001 0.404383 2.470143 -13.937179 1.785578 4.630534 -42.155934 1.031304 3.629799 -31.712715 -0.000001 -0.000002 0.000001 2.023023 7.456442 -17.252995 1.233965 3.938267 -34.782817 0.927048 3.455744 -30.025945 0.000004 0.000000 0.000001 1.855752 8.459392 -13.260717 0.403913 -1.736881 -20.105750 0.664089 2.955138 -25.325862 -0.000000 -0.000001 0.000001 -0.963806 -5.566584 -9.870385 -5.620500 105.530692 28.175056 0.000001 41.132813 0.000002 -13.448395 3.962455 19.973616 1.948072 -0.624491 9.654016 8.720124 -17.902926 5.830360 25.559666 -22.383242 8.835670 -0.000001 -0.000002 -0.000000 1.295647 -4.047805 36.096775 5.712798 -6.838040 79.733456 3.403104 -5.979604 59.259746 0.000001 0.000000 -0.000000 3.159847 -5.926525 48.524529 5.108285 -6.701342 74.608526 2.226008 -5.090736 47.048245 -0.000001 0.000001 0.000001 4.947123 -6.740787 64.619675 5.882159 -6.866354 81.152845 1.663346 -4.514153 40.393059 0.000002 -0.000000 0.000000 3.481478 -6.398738 44.170700 6.012990 -6.885315 82.245607 0.001293 0.134365 -1.102589 0.000001 0.000001 -0.000001 -43.161485 0.957788 18.600091 50.420163 -7.856680 2.844084 22.218225 -4.500745 -19.833816 0.718632 0.000006 0.000006 0.000000 0.000000 -0.000000 -1.971217 -18.808944 -27.414469 36.274329 8.758707 -4.299238 -25.805510 -1.637084 -1.401656 -3.224764 -0.000008 0.000000 -0.000000 0.000001 0.000000 
